<svg width="162" height="144" viewBox="0 0 162 144" fill="none" xmlns="http://www.w3.org/2000/svg">
<g opacity="0.7">
<path opacity="0.7" d="M127.782 106.53H34.346L34.9896 42.5866L61.7114 36.124H99.4951L127.138 40.7023L127.782 106.53Z" fill="url(#paint0_linear_122:138)"/>
</g>
<rect width="162" height="144" fill="#094169"/>
<path d="M36.9488 119V118.712L37.9688 118.472V110.378L36.9488 110.15V109.862H43.6448L43.8548 112.472H43.5368C43.4408 112.136 43.3228 111.784 43.1828 111.416C43.0468 111.044 42.8788 110.69 42.6788 110.354H39.3188V113.93H41.3588C41.4748 113.694 41.5668 113.458 41.6348 113.222C41.7068 112.982 41.7648 112.746 41.8088 112.514H42.1208V115.844H41.8088C41.7288 115.352 41.5788 114.88 41.3588 114.428H39.3188V118.502H42.6188C42.8548 118.118 43.0468 117.738 43.1948 117.362C43.3468 116.986 43.4908 116.606 43.6268 116.222H44.0468L43.5968 119H36.9488ZM44.6642 119V118.736C45.0682 118.68 45.3822 118.59 45.6062 118.466C45.8302 118.342 46.0402 118.152 46.2362 117.896L47.6762 115.97L46.0202 113.48C45.9082 113.316 45.7802 113.202 45.6362 113.138C45.4922 113.07 45.2542 113.014 44.9222 112.97V112.706H48.0302V112.97C47.6862 112.994 47.4822 113.048 47.4182 113.132C47.3582 113.216 47.4082 113.374 47.5682 113.606L48.4922 114.998L49.4162 113.828C49.6162 113.568 49.6802 113.376 49.6082 113.252C49.5362 113.128 49.3122 113.034 48.9362 112.97V112.706H51.4442V112.97C51.1882 113.018 50.9802 113.072 50.8202 113.132C50.6642 113.192 50.5282 113.272 50.4122 113.372C50.2962 113.468 50.1682 113.602 50.0282 113.774L48.7442 115.376L50.6402 118.226C50.7522 118.386 50.8742 118.504 51.0062 118.58C51.1422 118.656 51.3562 118.708 51.6482 118.736V119H48.5702V118.736C48.9702 118.704 49.1982 118.652 49.2542 118.58C49.3142 118.508 49.2602 118.348 49.0922 118.1L47.9522 116.384L46.7822 117.878C46.5822 118.138 46.5242 118.334 46.6082 118.466C46.6962 118.594 46.9442 118.684 47.3522 118.736V119H44.6642ZM53.6583 119.126C53.2303 119.126 52.8823 118.992 52.6143 118.724C52.3503 118.456 52.2183 118.108 52.2183 117.68C52.2183 117.328 52.3263 117.024 52.5423 116.768C52.7583 116.512 53.1063 116.288 53.5863 116.096C54.0703 115.9 54.7083 115.722 55.5003 115.562V114.44C55.5003 113.932 55.4303 113.576 55.2903 113.372C55.1543 113.168 54.9183 113.066 54.5823 113.066C54.2503 113.066 53.9863 113.146 53.7903 113.306C53.5943 113.466 53.4963 113.682 53.4963 113.954C53.4963 114.03 53.5003 114.106 53.5083 114.182C53.5203 114.254 53.5263 114.324 53.5263 114.392C53.5263 114.596 53.4643 114.764 53.3403 114.896C53.2203 115.028 53.0663 115.094 52.8783 115.094C52.7063 115.094 52.5663 115.038 52.4583 114.926C52.3543 114.814 52.3023 114.668 52.3023 114.488C52.3023 114.228 52.4143 113.962 52.6383 113.69C52.8663 113.414 53.1663 113.178 53.5383 112.982C54.0343 112.718 54.5723 112.586 55.1523 112.586C55.8683 112.586 56.3383 112.794 56.5623 113.21C56.6263 113.346 56.6683 113.518 56.6883 113.726C56.7123 113.934 56.7243 114.282 56.7243 114.77V117.452C56.7243 117.84 56.7543 118.104 56.8143 118.244C56.8783 118.384 56.9963 118.454 57.1683 118.454C57.3643 118.454 57.5543 118.342 57.7383 118.118L57.9543 118.322C57.7583 118.606 57.5583 118.812 57.3543 118.94C57.1543 119.064 56.9203 119.126 56.6523 119.126C56.0283 119.126 55.6563 118.77 55.5363 118.058H55.5003C55.2723 118.386 54.9963 118.646 54.6723 118.838C54.3483 119.03 54.0103 119.126 53.6583 119.126ZM54.2583 118.364C54.5063 118.364 54.7383 118.3 54.9543 118.172C55.1703 118.04 55.3523 117.858 55.5003 117.626V115.934C54.9643 116.038 54.5423 116.152 54.2343 116.276C53.9303 116.4 53.7143 116.552 53.5863 116.732C53.4623 116.908 53.4003 117.13 53.4003 117.398C53.4003 117.706 53.4723 117.944 53.6163 118.112C53.7643 118.28 53.9783 118.364 54.2583 118.364ZM58.3484 119V118.736L59.2424 118.55V113.672L58.3604 113.342V113.168L60.2564 112.586H60.4124V113.57C60.7404 113.258 61.0984 113.016 61.4864 112.844C61.8744 112.672 62.2564 112.586 62.6324 112.586C63.4644 112.586 63.9724 112.924 64.1564 113.6C64.4644 113.264 64.8204 113.012 65.2244 112.844C65.6284 112.672 66.0364 112.586 66.4484 112.586C66.9844 112.586 67.3764 112.732 67.6244 113.024C67.8724 113.316 68.0044 113.776 68.0204 114.404V118.562L68.9084 118.736V119H65.9204V118.736L66.8024 118.562V114.86C66.8024 114.292 66.7164 113.89 66.5444 113.654C66.3764 113.414 66.0904 113.294 65.6864 113.294C65.1144 113.294 64.6284 113.53 64.2284 114.002C64.2404 114.11 64.2464 114.226 64.2464 114.35V118.562L65.1344 118.736V119H62.1404V118.736L63.0284 118.562V114.896C63.0284 114.328 62.9384 113.92 62.7584 113.672C62.5824 113.42 62.2984 113.294 61.9064 113.294C61.3544 113.294 60.8764 113.522 60.4724 113.978V118.55L61.3544 118.736V119H58.3484ZM69.3964 121.97V121.736L70.3084 121.538V113.66L69.4264 113.342V113.156L71.3404 112.586H71.4844V113.612H71.5324C71.7724 113.256 72.0664 112.996 72.4144 112.832C72.7664 112.668 73.1224 112.586 73.4824 112.586C73.9824 112.586 74.4204 112.724 74.7964 113C75.1764 113.272 75.4724 113.646 75.6844 114.122C75.9004 114.598 76.0084 115.142 76.0084 115.754C76.0084 116.414 75.8684 116.998 75.5884 117.506C75.3084 118.014 74.9184 118.412 74.4184 118.7C73.9224 118.984 73.3424 119.126 72.6784 119.126C72.4864 119.126 72.2964 119.11 72.1084 119.078C71.9204 119.05 71.7304 119.004 71.5384 118.94V121.538L72.7624 121.736V121.97H69.3964ZM72.7264 118.724C73.1144 118.724 73.4544 118.606 73.7464 118.37C74.0384 118.134 74.2644 117.808 74.4244 117.392C74.5884 116.972 74.6704 116.49 74.6704 115.946C74.6704 115.15 74.5084 114.524 74.1844 114.068C73.8644 113.612 73.4264 113.384 72.8704 113.384C72.6264 113.384 72.3764 113.45 72.1204 113.582C71.8644 113.71 71.6844 113.872 71.5804 114.068V117.542C71.5804 117.886 71.6904 118.17 71.9104 118.394C72.1344 118.614 72.4064 118.724 72.7264 118.724ZM76.8089 119V118.736L77.7209 118.55V110.21L76.8209 109.892V109.706L78.8189 109.142H78.9449V118.55L79.8449 118.736V119H76.8089ZM83.5574 119.126C82.9774 119.126 82.4674 118.994 82.0274 118.73C81.5914 118.462 81.2514 118.09 81.0074 117.614C80.7674 117.134 80.6474 116.58 80.6474 115.952C80.6474 115.284 80.7814 114.698 81.0494 114.194C81.3214 113.69 81.6994 113.296 82.1834 113.012C82.6714 112.728 83.2354 112.586 83.8754 112.586C84.6674 112.586 85.2734 112.816 85.6934 113.276C86.1174 113.736 86.3374 114.41 86.3534 115.298L86.2694 115.37H81.9494C81.9454 115.446 81.9434 115.522 81.9434 115.598C81.9434 117.338 82.6194 118.208 83.9714 118.208C84.8514 118.208 85.5254 117.888 85.9934 117.248L86.2154 117.386C86.0074 117.938 85.6694 118.366 85.2014 118.67C84.7374 118.974 84.1894 119.126 83.5574 119.126ZM83.7554 112.988C83.2474 112.988 82.8414 113.164 82.5374 113.516C82.2334 113.864 82.0454 114.362 81.9734 115.01L84.9794 114.902C85.0074 114.798 85.0214 114.64 85.0214 114.428C85.0214 113.468 84.5994 112.988 83.7554 112.988ZM93.6335 119.108C93.0095 119.108 92.3635 118.91 91.6955 118.514L91.2215 119H90.9755L90.7535 115.958L91.0775 115.892C91.3175 116.832 91.6335 117.514 92.0255 117.938C92.4215 118.362 92.9435 118.574 93.5915 118.574C94.1355 118.574 94.5655 118.444 94.8815 118.184C95.1975 117.92 95.3555 117.564 95.3555 117.116C95.3555 116.764 95.2455 116.45 95.0255 116.174C94.8095 115.894 94.4535 115.614 93.9575 115.334L93.0395 114.848C92.2915 114.444 91.7555 114.042 91.4315 113.642C91.1075 113.242 90.9455 112.776 90.9455 112.244C90.9455 111.764 91.0635 111.336 91.2995 110.96C91.5355 110.58 91.8575 110.282 92.2655 110.066C92.6775 109.846 93.1395 109.736 93.6515 109.736C94.3515 109.736 94.9615 109.982 95.4815 110.474L95.8475 109.85H96.1055L96.2135 112.472H95.8715C95.6835 111.724 95.4115 111.172 95.0555 110.816C94.7035 110.456 94.2535 110.276 93.7055 110.276C93.2615 110.276 92.9095 110.394 92.6495 110.63C92.3935 110.866 92.2655 111.19 92.2655 111.602C92.2655 111.974 92.3875 112.306 92.6315 112.598C92.8795 112.89 93.2955 113.19 93.8795 113.498L94.7735 113.978C95.3855 114.302 95.8275 114.662 96.0995 115.058C96.3755 115.454 96.5135 115.908 96.5135 116.42C96.5135 116.928 96.3855 117.386 96.1295 117.794C95.8775 118.198 95.5335 118.518 95.0975 118.754C94.6655 118.99 94.1775 119.108 93.6335 119.108ZM100.883 119.126C100.267 119.126 99.7211 118.984 99.2451 118.7C98.7691 118.412 98.3951 118.022 98.1231 117.53C97.8551 117.034 97.7211 116.476 97.7211 115.856C97.7211 115.232 97.8551 114.674 98.1231 114.182C98.3951 113.69 98.7691 113.302 99.2451 113.018C99.7211 112.73 100.267 112.586 100.883 112.586C101.499 112.586 102.043 112.73 102.515 113.018C102.991 113.302 103.365 113.69 103.637 114.182C103.909 114.674 104.045 115.232 104.045 115.856C104.045 116.476 103.909 117.034 103.637 117.53C103.365 118.022 102.991 118.412 102.515 118.7C102.043 118.984 101.499 119.126 100.883 119.126ZM100.871 118.574C101.455 118.574 101.903 118.324 102.215 117.824C102.527 117.32 102.683 116.66 102.683 115.844C102.683 115.032 102.529 114.378 102.221 113.882C101.913 113.382 101.467 113.132 100.883 113.132C100.303 113.132 99.8571 113.382 99.5451 113.882C99.2371 114.382 99.0831 115.04 99.0831 115.856C99.0831 116.668 99.2371 117.324 99.5451 117.824C99.8531 118.324 100.295 118.574 100.871 118.574ZM107.894 119.126C107.35 119.126 106.866 118.994 106.442 118.73C106.022 118.462 105.692 118.092 105.452 117.62C105.216 117.144 105.098 116.596 105.098 115.976C105.098 115.32 105.228 114.738 105.488 114.23C105.752 113.718 106.114 113.316 106.574 113.024C107.038 112.732 107.568 112.586 108.164 112.586C108.584 112.586 108.96 112.656 109.292 112.796C109.624 112.932 109.886 113.114 110.078 113.342C110.274 113.566 110.372 113.812 110.372 114.08C110.372 114.3 110.316 114.47 110.204 114.59C110.092 114.71 109.94 114.77 109.748 114.77C109.36 114.77 109.136 114.514 109.076 114.002C109.032 113.606 108.946 113.34 108.818 113.204C108.69 113.068 108.484 113 108.2 113C107.632 113 107.19 113.244 106.874 113.732C106.562 114.216 106.406 114.86 106.406 115.664C106.406 116.472 106.57 117.092 106.898 117.524C107.226 117.956 107.692 118.172 108.296 118.172C108.696 118.172 109.054 118.098 109.37 117.95C109.686 117.802 109.968 117.556 110.216 117.212L110.456 117.35C110.236 117.918 109.906 118.356 109.466 118.664C109.026 118.972 108.502 119.126 107.894 119.126ZM112.747 111.326C112.503 111.326 112.309 111.248 112.165 111.092C112.021 110.936 111.949 110.754 111.949 110.546C111.949 110.318 112.021 110.126 112.165 109.97C112.309 109.814 112.503 109.736 112.747 109.736C112.995 109.736 113.191 109.814 113.335 109.97C113.483 110.126 113.557 110.318 113.557 110.546C113.557 110.754 113.483 110.936 113.335 111.092C113.191 111.248 112.995 111.326 112.747 111.326ZM111.229 119V118.736L112.141 118.55V113.66L111.247 113.342V113.156L113.239 112.586H113.371V118.55L114.271 118.736V119H111.229ZM116.529 119.126C116.101 119.126 115.753 118.992 115.485 118.724C115.221 118.456 115.089 118.108 115.089 117.68C115.089 117.328 115.197 117.024 115.413 116.768C115.629 116.512 115.977 116.288 116.457 116.096C116.941 115.9 117.579 115.722 118.371 115.562V114.44C118.371 113.932 118.301 113.576 118.161 113.372C118.025 113.168 117.789 113.066 117.453 113.066C117.121 113.066 116.857 113.146 116.661 113.306C116.465 113.466 116.367 113.682 116.367 113.954C116.367 114.03 116.371 114.106 116.379 114.182C116.391 114.254 116.397 114.324 116.397 114.392C116.397 114.596 116.335 114.764 116.211 114.896C116.091 115.028 115.937 115.094 115.749 115.094C115.577 115.094 115.437 115.038 115.329 114.926C115.225 114.814 115.173 114.668 115.173 114.488C115.173 114.228 115.285 113.962 115.509 113.69C115.737 113.414 116.037 113.178 116.409 112.982C116.905 112.718 117.443 112.586 118.023 112.586C118.739 112.586 119.209 112.794 119.433 113.21C119.497 113.346 119.539 113.518 119.559 113.726C119.583 113.934 119.595 114.282 119.595 114.77V117.452C119.595 117.84 119.625 118.104 119.685 118.244C119.749 118.384 119.867 118.454 120.039 118.454C120.235 118.454 120.425 118.342 120.609 118.118L120.825 118.322C120.629 118.606 120.429 118.812 120.225 118.94C120.025 119.064 119.791 119.126 119.523 119.126C118.899 119.126 118.527 118.77 118.407 118.058H118.371C118.143 118.386 117.867 118.646 117.543 118.838C117.219 119.03 116.881 119.126 116.529 119.126ZM117.129 118.364C117.377 118.364 117.609 118.3 117.825 118.172C118.041 118.04 118.223 117.858 118.371 117.626V115.934C117.835 116.038 117.413 116.152 117.105 116.276C116.801 116.4 116.585 116.552 116.457 116.732C116.333 116.908 116.271 117.13 116.271 117.398C116.271 117.706 116.343 117.944 116.487 118.112C116.635 118.28 116.849 118.364 117.129 118.364ZM121.118 119V118.736L122.03 118.55V110.21L121.13 109.892V109.706L123.128 109.142H123.254V118.55L124.154 118.736V119H121.118ZM17.7417 134V133.712L18.7617 133.472V125.384L17.7417 125.15V124.862H21.4197C22.0397 124.862 22.5877 124.962 23.0637 125.162C23.5437 125.358 23.9177 125.65 24.1857 126.038C24.4577 126.422 24.5937 126.896 24.5937 127.46C24.5937 128.048 24.4217 128.532 24.0777 128.912C23.7377 129.292 23.2577 129.558 22.6377 129.71L25.1397 133.472L26.4537 133.712V134H23.7897L21.1617 129.866H20.1117V133.472L21.4617 133.712V134H17.7417ZM20.1117 129.38H20.8077C21.2957 129.38 21.6797 129.322 21.9597 129.206C22.2437 129.09 22.4737 128.934 22.6497 128.738C22.8257 128.542 22.9497 128.324 23.0217 128.084C23.0977 127.84 23.1357 127.592 23.1357 127.34C23.1357 126.864 23.0397 126.472 22.8477 126.164C22.6557 125.856 22.3897 125.634 22.0497 125.498C21.9137 125.442 21.7637 125.404 21.5997 125.384C21.4357 125.36 21.2297 125.348 20.9817 125.348H20.1117V129.38ZM29.3465 134.126C28.7665 134.126 28.2565 133.994 27.8165 133.73C27.3805 133.462 27.0405 133.09 26.7965 132.614C26.5565 132.134 26.4365 131.58 26.4365 130.952C26.4365 130.284 26.5705 129.698 26.8385 129.194C27.1105 128.69 27.4885 128.296 27.9725 128.012C28.4605 127.728 29.0245 127.586 29.6645 127.586C30.4565 127.586 31.0625 127.816 31.4825 128.276C31.9065 128.736 32.1265 129.41 32.1425 130.298L32.0585 130.37H27.7385C27.7345 130.446 27.7325 130.522 27.7325 130.598C27.7325 132.338 28.4085 133.208 29.7605 133.208C30.6405 133.208 31.3145 132.888 31.7825 132.248L32.0045 132.386C31.7965 132.938 31.4585 133.366 30.9905 133.67C30.5265 133.974 29.9785 134.126 29.3465 134.126ZM29.5445 127.988C29.0365 127.988 28.6305 128.164 28.3265 128.516C28.0225 128.864 27.8345 129.362 27.7625 130.01L30.7685 129.902C30.7965 129.798 30.8105 129.64 30.8105 129.428C30.8105 128.468 30.3885 127.988 29.5445 127.988ZM35.0293 134.126C34.7733 134.126 34.4893 134.1 34.1773 134.048C33.8693 134 33.5993 133.938 33.3673 133.862L33.2893 131.936H33.6013C33.7053 133.132 34.2073 133.73 35.1073 133.73C35.4553 133.73 35.7333 133.634 35.9413 133.442C36.1533 133.246 36.2593 132.99 36.2593 132.674C36.2593 132.41 36.1813 132.184 36.0253 131.996C35.8693 131.804 35.5993 131.61 35.2153 131.414L34.7173 131.168C34.2053 130.912 33.8393 130.644 33.6193 130.364C33.3993 130.08 33.2893 129.738 33.2893 129.338C33.2893 128.778 33.4833 128.346 33.8713 128.042C34.2633 127.738 34.8213 127.586 35.5453 127.586C35.8253 127.586 36.0953 127.606 36.3553 127.646C36.6193 127.682 36.8253 127.732 36.9733 127.796V129.44H36.6973C36.5813 128.464 36.1273 127.976 35.3353 127.976C35.0273 127.976 34.7793 128.06 34.5913 128.228C34.4073 128.392 34.3153 128.616 34.3153 128.9C34.3153 129.148 34.3953 129.36 34.5553 129.536C34.7193 129.712 34.9953 129.894 35.3833 130.082L35.9293 130.346C36.4013 130.578 36.7413 130.834 36.9493 131.114C37.1573 131.394 37.2613 131.748 37.2613 132.176C37.2613 132.772 37.0613 133.246 36.6613 133.598C36.2613 133.95 35.7173 134.126 35.0293 134.126ZM41.2879 134.126C40.7079 134.126 40.1979 133.994 39.7579 133.73C39.3219 133.462 38.9819 133.09 38.7379 132.614C38.4979 132.134 38.3779 131.58 38.3779 130.952C38.3779 130.284 38.5119 129.698 38.7799 129.194C39.0519 128.69 39.4299 128.296 39.9139 128.012C40.4019 127.728 40.9659 127.586 41.6059 127.586C42.3979 127.586 43.0039 127.816 43.4239 128.276C43.8479 128.736 44.0679 129.41 44.0839 130.298L43.9999 130.37H39.6799C39.6759 130.446 39.6739 130.522 39.6739 130.598C39.6739 132.338 40.3499 133.208 41.7019 133.208C42.5819 133.208 43.2559 132.888 43.7239 132.248L43.9459 132.386C43.7379 132.938 43.3999 133.366 42.9319 133.67C42.4679 133.974 41.9199 134.126 41.2879 134.126ZM41.4859 127.988C40.9779 127.988 40.5719 128.164 40.2679 128.516C39.9639 128.864 39.7759 129.362 39.7039 130.01L42.7099 129.902C42.7379 129.798 42.7519 129.64 42.7519 129.428C42.7519 128.468 42.3299 127.988 41.4859 127.988ZM46.5567 134.126C46.1287 134.126 45.7807 133.992 45.5127 133.724C45.2487 133.456 45.1167 133.108 45.1167 132.68C45.1167 132.328 45.2247 132.024 45.4407 131.768C45.6567 131.512 46.0047 131.288 46.4847 131.096C46.9687 130.9 47.6067 130.722 48.3987 130.562V129.44C48.3987 128.932 48.3287 128.576 48.1887 128.372C48.0527 128.168 47.8167 128.066 47.4807 128.066C47.1487 128.066 46.8847 128.146 46.6887 128.306C46.4927 128.466 46.3947 128.682 46.3947 128.954C46.3947 129.03 46.3987 129.106 46.4067 129.182C46.4187 129.254 46.4247 129.324 46.4247 129.392C46.4247 129.596 46.3627 129.764 46.2387 129.896C46.1187 130.028 45.9647 130.094 45.7767 130.094C45.6047 130.094 45.4647 130.038 45.3567 129.926C45.2527 129.814 45.2007 129.668 45.2007 129.488C45.2007 129.228 45.3127 128.962 45.5367 128.69C45.7647 128.414 46.0647 128.178 46.4367 127.982C46.9327 127.718 47.4707 127.586 48.0507 127.586C48.7667 127.586 49.2367 127.794 49.4607 128.21C49.5247 128.346 49.5667 128.518 49.5867 128.726C49.6107 128.934 49.6227 129.282 49.6227 129.77V132.452C49.6227 132.84 49.6527 133.104 49.7127 133.244C49.7767 133.384 49.8947 133.454 50.0667 133.454C50.2627 133.454 50.4527 133.342 50.6367 133.118L50.8527 133.322C50.6567 133.606 50.4567 133.812 50.2527 133.94C50.0527 134.064 49.8187 134.126 49.5507 134.126C48.9267 134.126 48.5547 133.77 48.4347 133.058H48.3987C48.1707 133.386 47.8947 133.646 47.5707 133.838C47.2467 134.03 46.9087 134.126 46.5567 134.126ZM47.1567 133.364C47.4047 133.364 47.6367 133.3 47.8527 133.172C48.0687 133.04 48.2507 132.858 48.3987 132.626V130.934C47.8627 131.038 47.4407 131.152 47.1327 131.276C46.8287 131.4 46.6127 131.552 46.4847 131.732C46.3607 131.908 46.2987 132.13 46.2987 132.398C46.2987 132.706 46.3707 132.944 46.5147 133.112C46.6627 133.28 46.8767 133.364 47.1567 133.364ZM51.2529 134V133.736L52.1529 133.55V128.66L51.2769 128.33V128.156L53.1969 127.58H53.3289V128.84C53.6169 128.436 53.9009 128.124 54.1809 127.904C54.4609 127.684 54.7249 127.574 54.9729 127.574C55.1929 127.574 55.3789 127.65 55.5309 127.802C55.6829 127.95 55.7589 128.13 55.7589 128.342C55.7589 128.538 55.6929 128.704 55.5609 128.84C55.4289 128.972 55.2649 129.038 55.0689 129.038C54.8689 129.038 54.7129 128.964 54.6009 128.816C54.5209 128.724 54.4529 128.662 54.3969 128.63C54.3409 128.594 54.2769 128.576 54.2049 128.576C54.1009 128.576 53.9709 128.64 53.8149 128.768C53.6629 128.892 53.5169 129.062 53.3769 129.278V133.55L54.6129 133.736V134H51.2529ZM59.1093 134.126C58.5653 134.126 58.0813 133.994 57.6573 133.73C57.2373 133.462 56.9073 133.092 56.6673 132.62C56.4313 132.144 56.3133 131.596 56.3133 130.976C56.3133 130.32 56.4433 129.738 56.7033 129.23C56.9673 128.718 57.3293 128.316 57.7893 128.024C58.2533 127.732 58.7833 127.586 59.3793 127.586C59.7993 127.586 60.1753 127.656 60.5073 127.796C60.8393 127.932 61.1013 128.114 61.2933 128.342C61.4893 128.566 61.5873 128.812 61.5873 129.08C61.5873 129.3 61.5313 129.47 61.4193 129.59C61.3073 129.71 61.1553 129.77 60.9633 129.77C60.5753 129.77 60.3513 129.514 60.2913 129.002C60.2473 128.606 60.1613 128.34 60.0333 128.204C59.9053 128.068 59.6993 128 59.4153 128C58.8473 128 58.4053 128.244 58.0893 128.732C57.7773 129.216 57.6213 129.86 57.6213 130.664C57.6213 131.472 57.7853 132.092 58.1133 132.524C58.4413 132.956 58.9073 133.172 59.5113 133.172C59.9113 133.172 60.2693 133.098 60.5853 132.95C60.9013 132.802 61.1833 132.556 61.4313 132.212L61.6713 132.35C61.4513 132.918 61.1213 133.356 60.6813 133.664C60.2413 133.972 59.7173 134.126 59.1093 134.126ZM62.348 134V133.736L63.254 133.55V125.216L62.366 124.892V124.712L64.334 124.142H64.472V128.528C64.824 128.22 65.196 127.986 65.588 127.826C65.984 127.666 66.37 127.586 66.746 127.586C67.886 127.586 68.456 128.124 68.456 129.2V133.562L69.344 133.736V134H66.356V133.736L67.232 133.562V129.71C67.232 129.234 67.136 128.88 66.944 128.648C66.752 128.412 66.442 128.294 66.014 128.294C65.734 128.294 65.464 128.356 65.204 128.48C64.948 128.604 64.704 128.778 64.472 129.002V133.55L65.354 133.736V134H62.348ZM77.7809 134.126C77.1489 134.126 76.5669 134.008 76.0349 133.772C75.5069 133.532 75.0469 133.2 74.6549 132.776C74.2669 132.348 73.9649 131.85 73.7489 131.282C73.5369 130.71 73.4309 130.092 73.4309 129.428C73.4309 128.76 73.5369 128.142 73.7489 127.574C73.9649 127.006 74.2669 126.51 74.6549 126.086C75.0469 125.658 75.5069 125.326 76.0349 125.09C76.5669 124.854 77.1489 124.736 77.7809 124.736C78.4129 124.736 78.9949 124.854 79.5269 125.09C80.0589 125.326 80.5189 125.658 80.9069 126.086C81.2989 126.51 81.6029 127.006 81.8189 127.574C82.0349 128.142 82.1429 128.76 82.1429 129.428C82.1429 130.092 82.0349 130.71 81.8189 131.282C81.6029 131.85 81.2989 132.348 80.9069 132.776C80.5189 133.2 80.0589 133.532 79.5269 133.772C78.9949 134.008 78.4129 134.126 77.7809 134.126ZM77.7809 133.562C78.3769 133.562 78.8789 133.388 79.2869 133.04C79.6949 132.692 80.0049 132.206 80.2169 131.582C80.4289 130.958 80.5349 130.23 80.5349 129.398C80.5349 128.574 80.4309 127.856 80.2229 127.244C80.0149 126.628 79.7069 126.15 79.2989 125.81C78.8909 125.466 78.3889 125.294 77.7929 125.294C77.1969 125.294 76.6929 125.466 76.2809 125.81C75.8729 126.154 75.5629 126.636 75.3509 127.256C75.1429 127.872 75.0389 128.594 75.0389 129.422C75.0389 130.246 75.1429 130.97 75.3509 131.594C75.5629 132.214 75.8729 132.698 76.2809 133.046C76.6889 133.39 77.1889 133.562 77.7809 133.562ZM83.1396 134V133.736L84.0396 133.55V128.66L83.1636 128.33V128.156L85.0836 127.58H85.2156V128.84C85.5036 128.436 85.7876 128.124 86.0676 127.904C86.3476 127.684 86.6116 127.574 86.8596 127.574C87.0796 127.574 87.2656 127.65 87.4176 127.802C87.5696 127.95 87.6456 128.13 87.6456 128.342C87.6456 128.538 87.5796 128.704 87.4476 128.84C87.3156 128.972 87.1516 129.038 86.9556 129.038C86.7556 129.038 86.5996 128.964 86.4876 128.816C86.4076 128.724 86.3396 128.662 86.2836 128.63C86.2276 128.594 86.1636 128.576 86.0916 128.576C85.9876 128.576 85.8576 128.64 85.7016 128.768C85.5496 128.892 85.4036 129.062 85.2636 129.278V133.55L86.4996 133.736V134H83.1396ZM90.8798 131.99C90.0078 131.99 89.5718 132.19 89.5718 132.59C89.5718 132.734 89.6718 132.854 89.8718 132.95C90.0758 133.042 90.4698 133.132 91.0538 133.22L91.9118 133.37C92.6078 133.478 93.1198 133.662 93.4478 133.922C93.7798 134.178 93.9458 134.526 93.9458 134.966C93.9458 135.33 93.8438 135.646 93.6398 135.914C93.4358 136.182 93.1618 136.402 92.8178 136.574C92.4778 136.75 92.0978 136.88 91.6778 136.964C91.2578 137.048 90.8318 137.09 90.3998 137.09C89.9798 137.09 89.5738 137.038 89.1818 136.934C88.7898 136.83 88.4658 136.664 88.2098 136.436C87.9578 136.208 87.8318 135.908 87.8318 135.536C87.8318 135.224 87.9418 134.942 88.1618 134.69C88.3818 134.438 88.7598 134.196 89.2958 133.964C88.7638 133.732 88.4978 133.398 88.4978 132.962C88.4978 132.838 88.5338 132.704 88.6058 132.56C88.6778 132.416 88.8138 132.28 89.0138 132.152C89.2178 132.02 89.5158 131.912 89.9078 131.828C89.4718 131.676 89.1258 131.422 88.8698 131.066C88.6138 130.71 88.4858 130.286 88.4858 129.794C88.4858 129.37 88.5898 128.992 88.7978 128.66C89.0098 128.328 89.2978 128.066 89.6618 127.874C90.0258 127.682 90.4378 127.586 90.8978 127.586C91.3778 127.586 91.8138 127.694 92.2058 127.91C92.2778 127.722 92.3698 127.534 92.4818 127.346C92.5938 127.158 92.7298 127.002 92.8898 126.878C93.0498 126.75 93.2358 126.686 93.4478 126.686C93.6358 126.686 93.7998 126.74 93.9398 126.848C94.0798 126.956 94.1498 127.104 94.1498 127.292C94.1498 127.452 94.0958 127.59 93.9878 127.706C93.8798 127.818 93.7458 127.874 93.5858 127.874C93.4698 127.874 93.3838 127.848 93.3278 127.796C93.2718 127.744 93.2198 127.692 93.1718 127.64C93.1278 127.588 93.0558 127.562 92.9558 127.562C92.8638 127.562 92.7778 127.616 92.6978 127.724C92.6178 127.832 92.5558 127.958 92.5118 128.102C92.7638 128.298 92.9638 128.538 93.1118 128.822C93.2598 129.106 93.3338 129.418 93.3338 129.758C93.3338 130.154 93.2318 130.522 93.0278 130.862C92.8238 131.198 92.5378 131.47 92.1698 131.678C91.8018 131.886 91.3718 131.99 90.8798 131.99ZM90.8738 131.594C91.1778 131.594 91.4138 131.496 91.5818 131.3C91.7538 131.104 91.8738 130.862 91.9418 130.574C92.0098 130.282 92.0438 130 92.0438 129.728C92.0438 129.556 92.0278 129.37 91.9958 129.17C91.9678 128.966 91.9138 128.774 91.8338 128.594C91.7578 128.41 91.6458 128.26 91.4978 128.144C91.3538 128.024 91.1678 127.964 90.9398 127.964C90.6998 127.964 90.5038 128.028 90.3518 128.156C90.1998 128.28 90.0818 128.442 89.9978 128.642C89.9138 128.838 89.8558 129.044 89.8238 129.26C89.7918 129.476 89.7758 129.674 89.7758 129.854C89.7758 130.082 89.8038 130.332 89.8598 130.604C89.9158 130.872 90.0218 131.104 90.1778 131.3C90.3378 131.496 90.5698 131.594 90.8738 131.594ZM88.8518 135.386C88.8518 135.678 88.9338 135.918 89.0978 136.106C89.2618 136.298 89.4798 136.44 89.7518 136.532C90.0278 136.628 90.3258 136.676 90.6458 136.676C91.0338 136.676 91.4038 136.632 91.7558 136.544C92.1118 136.456 92.4018 136.32 92.6258 136.136C92.8538 135.952 92.9678 135.716 92.9678 135.428C92.9678 135.28 92.9198 135.146 92.8238 135.026C92.7278 134.906 92.5418 134.792 92.2658 134.684C91.9938 134.58 91.5918 134.478 91.0598 134.378L90.0698 134.192C89.9378 134.168 89.8118 134.138 89.6918 134.102C89.4278 134.234 89.2218 134.416 89.0738 134.648C88.9258 134.88 88.8518 135.126 88.8518 135.386ZM96.045 134.126C95.617 134.126 95.269 133.992 95.001 133.724C94.737 133.456 94.605 133.108 94.605 132.68C94.605 132.328 94.713 132.024 94.929 131.768C95.145 131.512 95.493 131.288 95.973 131.096C96.457 130.9 97.095 130.722 97.887 130.562V129.44C97.887 128.932 97.817 128.576 97.677 128.372C97.541 128.168 97.305 128.066 96.969 128.066C96.637 128.066 96.373 128.146 96.177 128.306C95.981 128.466 95.883 128.682 95.883 128.954C95.883 129.03 95.887 129.106 95.895 129.182C95.907 129.254 95.913 129.324 95.913 129.392C95.913 129.596 95.851 129.764 95.727 129.896C95.607 130.028 95.453 130.094 95.265 130.094C95.093 130.094 94.953 130.038 94.845 129.926C94.741 129.814 94.689 129.668 94.689 129.488C94.689 129.228 94.801 128.962 95.025 128.69C95.253 128.414 95.553 128.178 95.925 127.982C96.421 127.718 96.959 127.586 97.539 127.586C98.255 127.586 98.725 127.794 98.949 128.21C99.013 128.346 99.055 128.518 99.075 128.726C99.099 128.934 99.111 129.282 99.111 129.77V132.452C99.111 132.84 99.141 133.104 99.201 133.244C99.265 133.384 99.383 133.454 99.555 133.454C99.751 133.454 99.941 133.342 100.125 133.118L100.341 133.322C100.145 133.606 99.945 133.812 99.741 133.94C99.541 134.064 99.307 134.126 99.039 134.126C98.415 134.126 98.043 133.77 97.923 133.058H97.887C97.659 133.386 97.383 133.646 97.059 133.838C96.735 134.03 96.397 134.126 96.045 134.126ZM96.645 133.364C96.893 133.364 97.125 133.3 97.341 133.172C97.557 133.04 97.739 132.858 97.887 132.626V130.934C97.351 131.038 96.929 131.152 96.621 131.276C96.317 131.4 96.101 131.552 95.973 131.732C95.849 131.908 95.787 132.13 95.787 132.398C95.787 132.706 95.859 132.944 96.003 133.112C96.151 133.28 96.365 133.364 96.645 133.364ZM100.735 134V133.736L101.635 133.55V128.672L100.747 128.342V128.168L102.667 127.586H102.799V128.588C103.131 128.272 103.489 128.026 103.873 127.85C104.261 127.674 104.647 127.586 105.031 127.586C106.171 127.586 106.741 128.124 106.741 129.2V133.562L107.629 133.736V134H104.641V133.736L105.517 133.562V129.71C105.517 129.234 105.421 128.88 105.229 128.648C105.037 128.412 104.727 128.294 104.299 128.294C103.739 128.294 103.259 128.526 102.859 128.99V133.55L103.741 133.736V134H100.735ZM109.759 126.326C109.515 126.326 109.321 126.248 109.177 126.092C109.033 125.936 108.961 125.754 108.961 125.546C108.961 125.318 109.033 125.126 109.177 124.97C109.321 124.814 109.515 124.736 109.759 124.736C110.007 124.736 110.203 124.814 110.347 124.97C110.495 125.126 110.569 125.318 110.569 125.546C110.569 125.754 110.495 125.936 110.347 126.092C110.203 126.248 110.007 126.326 109.759 126.326ZM108.241 134V133.736L109.153 133.55V128.66L108.259 128.342V128.156L110.251 127.586H110.383V133.55L111.283 133.736V134H108.241ZM111.993 134V133.664L115.677 128.114H113.127C112.927 128.646 112.783 129.058 112.695 129.35C112.607 129.642 112.543 129.882 112.503 130.07L112.227 130.04L112.377 127.706H117.225V128.036L113.499 133.598H116.193C116.333 133.254 116.455 132.91 116.559 132.566C116.667 132.222 116.745 131.934 116.793 131.702L117.069 131.726L116.991 134H111.993ZM119.729 134.126C119.301 134.126 118.953 133.992 118.685 133.724C118.421 133.456 118.289 133.108 118.289 132.68C118.289 132.328 118.397 132.024 118.613 131.768C118.829 131.512 119.177 131.288 119.657 131.096C120.141 130.9 120.779 130.722 121.571 130.562V129.44C121.571 128.932 121.501 128.576 121.361 128.372C121.225 128.168 120.989 128.066 120.653 128.066C120.321 128.066 120.057 128.146 119.861 128.306C119.665 128.466 119.567 128.682 119.567 128.954C119.567 129.03 119.571 129.106 119.579 129.182C119.591 129.254 119.597 129.324 119.597 129.392C119.597 129.596 119.535 129.764 119.411 129.896C119.291 130.028 119.137 130.094 118.949 130.094C118.777 130.094 118.637 130.038 118.529 129.926C118.425 129.814 118.373 129.668 118.373 129.488C118.373 129.228 118.485 128.962 118.709 128.69C118.937 128.414 119.237 128.178 119.609 127.982C120.105 127.718 120.643 127.586 121.223 127.586C121.939 127.586 122.409 127.794 122.633 128.21C122.697 128.346 122.739 128.518 122.759 128.726C122.783 128.934 122.795 129.282 122.795 129.77V132.452C122.795 132.84 122.825 133.104 122.885 133.244C122.949 133.384 123.067 133.454 123.239 133.454C123.435 133.454 123.625 133.342 123.809 133.118L124.025 133.322C123.829 133.606 123.629 133.812 123.425 133.94C123.225 134.064 122.991 134.126 122.723 134.126C122.099 134.126 121.727 133.77 121.607 133.058H121.571C121.343 133.386 121.067 133.646 120.743 133.838C120.419 134.03 120.081 134.126 119.729 134.126ZM120.329 133.364C120.577 133.364 120.809 133.3 121.025 133.172C121.241 133.04 121.423 132.858 121.571 132.626V130.934C121.035 131.038 120.613 131.152 120.305 131.276C120.001 131.4 119.785 131.552 119.657 131.732C119.533 131.908 119.471 132.13 119.471 132.398C119.471 132.706 119.543 132.944 119.687 133.112C119.835 133.28 120.049 133.364 120.329 133.364ZM126.555 134.126C126.111 134.126 125.773 134 125.541 133.748C125.309 133.496 125.193 133.134 125.193 132.662V128.15H124.413L124.377 127.934L126.177 126.146L126.411 126.17V127.706H128.127L128.025 128.15H126.411V132.542C126.411 133.198 126.647 133.526 127.119 133.526C127.467 133.526 127.761 133.368 128.001 133.052L128.211 133.238C128.027 133.51 127.787 133.726 127.491 133.886C127.199 134.046 126.887 134.126 126.555 134.126ZM130.173 126.326C129.929 126.326 129.735 126.248 129.591 126.092C129.447 125.936 129.375 125.754 129.375 125.546C129.375 125.318 129.447 125.126 129.591 124.97C129.735 124.814 129.929 124.736 130.173 124.736C130.421 124.736 130.617 124.814 130.761 124.97C130.909 125.126 130.983 125.318 130.983 125.546C130.983 125.754 130.909 125.936 130.761 126.092C130.617 126.248 130.421 126.326 130.173 126.326ZM128.655 134V133.736L129.567 133.55V128.66L128.673 128.342V128.156L130.665 127.586H130.797V133.55L131.697 133.736V134H128.655ZM135.629 134.126C135.013 134.126 134.467 133.984 133.991 133.7C133.515 133.412 133.141 133.022 132.869 132.53C132.601 132.034 132.467 131.476 132.467 130.856C132.467 130.232 132.601 129.674 132.869 129.182C133.141 128.69 133.515 128.302 133.991 128.018C134.467 127.73 135.013 127.586 135.629 127.586C136.245 127.586 136.789 127.73 137.261 128.018C137.737 128.302 138.111 128.69 138.383 129.182C138.655 129.674 138.791 130.232 138.791 130.856C138.791 131.476 138.655 132.034 138.383 132.53C138.111 133.022 137.737 133.412 137.261 133.7C136.789 133.984 136.245 134.126 135.629 134.126ZM135.617 133.574C136.201 133.574 136.649 133.324 136.961 132.824C137.273 132.32 137.429 131.66 137.429 130.844C137.429 130.032 137.275 129.378 136.967 128.882C136.659 128.382 136.213 128.132 135.629 128.132C135.049 128.132 134.603 128.382 134.291 128.882C133.983 129.382 133.829 130.04 133.829 130.856C133.829 131.668 133.983 132.324 134.291 132.824C134.599 133.324 135.041 133.574 135.617 133.574ZM139.677 134V133.736L140.577 133.55V128.672L139.689 128.342V128.168L141.609 127.586H141.741V128.588C142.073 128.272 142.431 128.026 142.815 127.85C143.203 127.674 143.589 127.586 143.973 127.586C145.113 127.586 145.683 128.124 145.683 129.2V133.562L146.571 133.736V134H143.583V133.736L144.459 133.562V129.71C144.459 129.234 144.363 128.88 144.171 128.648C143.979 128.412 143.669 128.294 143.241 128.294C142.681 128.294 142.201 128.526 141.801 128.99V133.55L142.683 133.736V134H139.677Z" fill="#E3F0FF"/>
<path d="M127 106H36L36.6486 43.4787L62.2052 37H100.42L126.351 41.5887L127 106Z" fill="white"/>
<path d="M127 106H36L36.6486 43.4787L62.2052 37H100.42L126.351 41.5887L127 106Z" fill="#535461" fill-opacity="0.15"/>
<g opacity="0.7">
<path opacity="0.7" d="M70.4645 8.56966H63.6463V20.9115H70.4645V8.56966Z" fill="url(#paint1_linear_122:138)"/>
</g>
<g opacity="0.7">
<path opacity="0.7" d="M63.6462 46.5886V33.2498H34.0298L29 46.5886V47.9567H63.8312V46.5886H63.6462Z" fill="url(#paint2_linear_122:138)"/>
</g>
<path d="M64 47H29L34.081 34H64V47Z" fill="#F1F9FD"/>
<g opacity="0.7">
<path opacity="0.7" d="M127.439 33.4195H97.7452V46.9103H97.5564V48.2961H132.48V46.9103L127.439 33.4195Z" fill="url(#paint3_linear_122:138)"/>
</g>
<path d="M98 47H132L127.065 34H98V47Z" fill="#F1F9FD"/>
<path d="M97 49L132 49V47L97 47V49Z" fill="#5999C7"/>
<path d="M29 49L64 49V47L29 47V49Z" fill="#5999C7"/>
<path opacity="0.5" d="M57 83H39V94H57V83Z" fill="#94CCF4"/>
<path opacity="0.1" d="M59 93H37V95H59V93Z" fill="black"/>
<path d="M59 93H37V95H59V93Z" fill="#535461"/>
<path opacity="0.5" d="M123 83H104V94H123V83Z" fill="#94CCF4"/>
<path opacity="0.1" d="M124 93H103V95H124V93Z" fill="black"/>
<path d="M124 93H103V95H124V93Z" fill="#535461"/>
<path opacity="0.5" d="M123 57H104V69H123V57Z" fill="#94CCF4"/>
<g opacity="0.1">
<path opacity="0.1" d="M122.991 57.8451H104.378V62.0698H122.991V57.8451Z" fill="black"/>
</g>
<path opacity="0.5" d="M58 57H39V69H58V57Z" fill="#94CCF4"/>
<path opacity="0.1" d="M59 68H38V70H59V68Z" fill="#535461"/>
<g opacity="0.7">
<path opacity="0.7" d="M103.484 26.3488L80.7555 10.2242L58.7513 26.3382L57.0246 24.3584L80.7285 7L105.176 24.3443L103.484 26.3488Z" fill="url(#paint4_linear_122:138)"/>
</g>
<path d="M70 9H64V21H70V9Z" fill="#535461"/>
<g opacity="0.7">
<path opacity="0.7" d="M101.337 106.024H60.0541V24.1923L80.875 23.4463L101.337 24.1923V106.024Z" fill="url(#paint5_linear_122:138)"/>
</g>
<path d="M100.635 106H61V23.8562L80.8175 10L101 24.3652L100.635 106Z" fill="white"/>
<path d="M86 90H75V106H86V90Z" fill="#5999C7"/>
<path opacity="0.1" d="M91 77H70V79H91V77Z" fill="black"/>
<path opacity="0.5" d="M90 66H71V77H90V66Z" fill="#94CCF4"/>
<path opacity="0.5" d="M90 46H71V57H90V46Z" fill="#94CCF4"/>
<g opacity="0.1">
<path opacity="0.1" d="M90.0019 45.7613H71.3895V49.986H90.0019V45.7613Z" fill="black"/>
</g>
<path opacity="0.5" d="M90 25H71V35H90V25Z" fill="#94CCF4"/>
<path d="M91 34H70V36H91V34Z" fill="#535461"/>
<path d="M91 56H70V58H91V56Z" fill="#535461"/>
<path d="M124 67H103V69H124V67Z" fill="#535461"/>
<path d="M59 68H38V70H59V68Z" fill="#535461"/>
<path d="M91 77H70V79H91V77Z" fill="#535461"/>
<path d="M103.313 27L80.6561 11.1655L58.7213 26.9861L57 25.0424L80.6292 8L105 25.0285L103.313 27Z" fill="#5999C7"/>
<path d="M84.5 99C84.7761 99 85 98.5523 85 98C85 97.4477 84.7761 97 84.5 97C84.2239 97 84 97.4477 84 98C84 98.5523 84.2239 99 84.5 99Z" fill="#E0E0E0"/>
<defs>
<linearGradient id="paint0_linear_122:138" x1="68733.9" y1="19857.5" x2="68733.9" y2="5836.17" gradientUnits="userSpaceOnUse">
<stop stop-color="#808080" stop-opacity="0.25"/>
<stop offset="0.54" stop-color="#808080" stop-opacity="0.12"/>
<stop offset="1" stop-color="#808080" stop-opacity="0.1"/>
</linearGradient>
<linearGradient id="paint1_linear_122:138" x1="4829.05" y1="494.22" x2="4829.05" y2="63.3673" gradientUnits="userSpaceOnUse">
<stop stop-color="#808080" stop-opacity="0.25"/>
<stop offset="0.54" stop-color="#808080" stop-opacity="0.12"/>
<stop offset="1" stop-color="#808080" stop-opacity="0.1"/>
</linearGradient>
<linearGradient id="paint2_linear_122:138" x1="22508" y1="1737.05" x2="22508" y2="1125.24" gradientUnits="userSpaceOnUse">
<stop stop-color="#808080" stop-opacity="0.25"/>
<stop offset="0.54" stop-color="#808080" stop-opacity="0.12"/>
<stop offset="1" stop-color="#808080" stop-opacity="0.1"/>
</linearGradient>
<linearGradient id="paint3_linear_122:138" x1="28852.4" y1="1771.16" x2="28852.4" y2="1145.15" gradientUnits="userSpaceOnUse">
<stop stop-color="#808080" stop-opacity="0.25"/>
<stop offset="0.54" stop-color="#808080" stop-opacity="0.12"/>
<stop offset="1" stop-color="#808080" stop-opacity="0.1"/>
</linearGradient>
<linearGradient id="paint4_linear_122:138" x1="35465.8" y1="1065.96" x2="35465.8" y2="7" gradientUnits="userSpaceOnUse">
<stop stop-color="#808080" stop-opacity="0.25"/>
<stop offset="0.54" stop-color="#808080" stop-opacity="0.12"/>
<stop offset="1" stop-color="#808080" stop-opacity="0.1"/>
</linearGradient>
<linearGradient id="paint5_linear_122:138" x1="30374.4" y1="23153.6" x2="30374.4" y2="3864.98" gradientUnits="userSpaceOnUse">
<stop stop-color="#808080" stop-opacity="0.25"/>
<stop offset="0.54" stop-color="#808080" stop-opacity="0.12"/>
<stop offset="1" stop-color="#808080" stop-opacity="0.1"/>
</linearGradient>
</defs>
</svg>
